<svg width="385" height="512" viewBox="0 0 385 512" fill="none" xmlns="http://www.w3.org/2000/svg">
<path fill-rule="evenodd" clip-rule="evenodd" d="M181.531 1.45393C173.817 3.55893 169.972 5.42693 163.409 10.2589C153.716 17.3939 146.246 30.2519 144.556 42.7079L143.843 47.9579H134.074C128.7 47.9579 121.882 48.4169 118.922 48.9789C105.64 51.4979 92.0254 61.5889 85.8834 73.4669L82.5314 79.9509L63.4174 79.9539C41.1734 79.9589 36.0624 80.7139 26.4704 85.4179C13.8074 91.6279 3.69144 104.932 1.05244 118.849C-0.336561 126.17 -0.357564 465.589 1.03044 473.072C4.40944 491.296 20.5844 507.46 38.9224 510.937C46.2274 512.323 337.679 512.344 345.145 510.959C363.369 507.58 379.533 491.405 383.01 473.067C384.418 465.643 384.418 126.273 383.01 118.849C380.371 104.932 370.255 91.6279 357.592 85.4179C348 80.7139 342.889 79.9589 320.645 79.9539L301.531 79.9509L298.221 73.5499C291.99 61.4989 278.56 51.5239 265.14 48.9789C262.18 48.4169 255.419 47.9579 250.116 47.9579H240.474L239.384 41.0379C237.779 30.8419 233.222 21.9639 225.77 14.5119C213.466 2.20693 196.798 -2.71207 181.531 1.45393ZM201.631 35.4659C206.897 39.4829 208.031 43.1129 208.031 55.9579C208.031 68.8859 209.158 72.4259 214.593 76.5759L218.368 79.4579L240.13 79.9579C260.111 80.4169 262.117 80.6269 264.649 82.5199C270.636 86.9949 271.504 89.2189 271.869 101.028L272.208 111.958H192.031H111.854L112.193 101.028C112.558 89.2189 113.426 86.9949 119.413 82.5199C121.945 80.6269 123.951 80.4169 143.932 79.9579L165.694 79.4579L169.469 76.5759C174.84 72.4749 176.031 68.8419 176.031 56.5549C176.031 45.0399 176.835 41.8729 180.845 37.5859C186.725 31.2999 195.055 30.4509 201.631 35.4659ZM80.0314 121.49C80.0314 132.777 81.3334 136.561 86.5974 140.576L90.3754 143.458H192.031H293.687L297.465 140.576C302.737 136.555 304.031 132.781 304.031 121.43V111.837L322.961 112.147C343.672 112.487 344.523 112.718 349.469 119.343L351.531 122.105V295.958V469.811L349.469 472.573C348.335 474.092 346.165 476.262 344.646 477.396C341.885 479.457 341.822 479.458 192.031 479.458C42.2404 479.458 42.1774 479.457 39.4164 477.396C37.8974 476.262 35.7274 474.092 34.5934 472.573C32.5324 469.813 32.5314 469.742 32.2454 298.635C32.0884 204.488 32.2184 126.009 32.5354 124.237C33.2524 120.227 37.4564 115.118 41.4814 113.365C43.6264 112.43 49.7964 112.025 62.2814 111.997L80.0314 111.958V121.49ZM73.5314 177.37C69.8534 179.004 66.5174 182.526 65.0984 186.273C64.4794 187.907 64.0314 197.047 64.0314 208.055C64.0314 229.54 64.0314 230.5 69 236L74.3694 239.458L94.6794 239.765C117.578 240.111 118.5 239.458 124.5 233.5L126.5 229.5L127.531 207.958L126.5 186.273L123.5 181C118.5 175.997 117.652 175.953 95.8134 175.997C81.9854 176.025 75.6824 176.413 73.5314 177.37ZM169.481 193.365C162.789 196.28 159.051 203.92 160.51 211.699C161.383 216.349 167.657 222.619 172.274 223.454C174.065 223.778 205.716 223.911 242.609 223.75L309.688 223.458L313.465 220.576C320.662 215.086 321.98 205.513 316.523 198.358C311.468 191.731 314.155 191.954 239.813 191.997C186.137 192.028 171.914 192.305 169.481 193.365ZM73.5314 273.37C69.8534 275.004 66.5174 278.526 65.0984 282.273C64.4794 283.907 64.0314 293.047 64.0314 304.055C64.0314 325.54 64.5964 327.998 70.5944 332.576L74.3694 335.458L94.6794 335.765C117.578 336.111 119.916 335.598 124.837 329.145L127.531 325.614V303.958V282.302L124.649 278.524C120.051 272.496 117.652 271.953 95.8134 271.997C81.9854 272.025 75.6824 272.413 73.5314 273.37ZM169.481 289.365C162.789 292.28 159.051 299.92 160.51 307.699C161.383 312.349 167.657 318.619 172.274 319.454C174.065 319.778 205.716 319.911 242.609 319.75L309.688 319.458L313.465 316.576C320.662 311.086 321.98 301.513 316.523 294.358C311.468 287.731 314.155 287.954 239.813 287.997C186.137 288.028 171.914 288.305 169.481 289.365ZM73.5314 369.37C69.8534 371.004 66.5174 374.526 65.0984 378.273C64.4794 379.907 64.0314 389.047 64.0314 400.055C64.0314 421.54 64.5964 423.998 70.5944 428.576L74.3694 431.458L94.6794 431.765C117.578 432.111 119.916 431.598 124.837 425.145L127.531 421.614V399.958V378.302L124.649 374.524C120.051 368.496 117.652 367.953 95.8134 367.997C81.9854 368.025 75.6824 368.413 73.5314 369.37ZM169.481 385.365C162.789 388.28 159.051 395.92 160.51 403.699C161.383 408.349 167.657 414.619 172.274 415.454C174.065 415.778 205.716 415.911 242.609 415.75L309.688 415.458L313.465 412.576C320.662 407.086 321.98 397.513 316.523 390.358C311.468 383.731 314.155 383.954 239.813 383.997C186.137 384.028 171.914 384.305 169.481 385.365Z" fill="#0077FF"/>
</svg>
